<svg width="494" height="496" viewBox="0 0 494 496" fill="none" xmlns="http://www.w3.org/2000/svg">
<path fill-rule="evenodd" clip-rule="evenodd" d="M109.961 271.438H148V261.242H109.961V271.438ZM96.3555 270.523C97.3398 271.531 98.5938 272.035 100.117 272.035C101.664 272.035 102.93 271.52 103.914 270.488C104.898 269.434 105.391 268.051 105.391 266.34C105.391 264.629 104.898 263.258 103.914 262.227C102.93 261.172 101.664 260.645 100.117 260.645C98.5938 260.645 97.3398 261.16 96.3555 262.191C95.3711 263.223 94.8789 264.605 94.8789 266.34C94.8789 268.098 95.3711 269.492 96.3555 270.523ZM114.355 243.172L109.961 243.488V253.051H148V242.891H121.176C118.738 241.461 117.52 239.316 117.52 236.457C117.52 234.277 118.012 232.719 118.996 231.781C119.957 230.844 121.516 230.375 123.672 230.375H148V220.215H123.426C118.715 220.262 115.176 221.27 112.809 223.238C110.441 225.207 109.258 228.207 109.258 232.238C109.258 236.809 110.957 240.453 114.355 243.172ZM114.355 202.812L109.961 203.129V212.691H148V202.531H121.176C118.738 201.102 117.52 198.957 117.52 196.098C117.52 193.918 118.012 192.359 118.996 191.422C119.957 190.484 121.516 190.016 123.672 190.016H148V179.855H123.426C118.715 179.902 115.176 180.91 112.809 182.879C110.441 184.848 109.258 187.848 109.258 191.879C109.258 196.449 110.957 200.094 114.355 202.812ZM118.539 171.523C121.492 172.977 124.855 173.703 128.629 173.703H129.086C135.133 173.703 139.914 172.074 143.43 168.816C146.945 165.535 148.703 161.152 148.703 155.668C148.703 150.184 146.945 145.812 143.43 142.555C139.891 139.297 135.203 137.668 129.367 137.668L126.766 137.738C121.375 138.113 117.109 139.93 113.969 143.188C110.828 146.422 109.258 150.605 109.258 155.738C109.258 159.348 110.066 162.523 111.684 165.266C113.301 167.984 115.586 170.07 118.539 171.523ZM137.664 161.504C135.742 162.863 132.977 163.543 129.367 163.543C125.312 163.543 122.324 162.863 120.402 161.504C118.457 160.145 117.484 158.223 117.484 155.738C117.484 153.23 118.457 151.285 120.402 149.902C122.348 148.52 125.09 147.828 128.629 147.828C132.777 147.828 135.801 148.52 137.699 149.902C139.574 151.285 140.512 153.207 140.512 155.668C140.512 158.199 139.562 160.145 137.664 161.504ZM109.961 110.668L135.59 117.734L109.961 124.801V135.418L148 122.586V112.883L109.961 100.051V110.668ZM144.59 75.0898C145.949 74.8789 147.086 74.5391 148 74.0703V63.8047H147.402C145.551 64.7891 142.82 65.293 139.211 65.3164H122.723C118.457 65.3164 115.152 66.6992 112.809 69.4648C110.441 72.207 109.258 75.9219 109.258 80.6094C109.258 83.7031 109.797 86.4922 110.875 88.9766C111.93 91.4609 113.395 93.3828 115.27 94.7422C117.145 96.1016 119.184 96.7812 121.387 96.7812V86.6211C119.957 86.6211 118.832 86.1406 118.012 85.1797C117.191 84.1953 116.781 82.8477 116.781 81.1367C116.781 79.1914 117.309 77.7734 118.363 76.8828C119.418 75.9688 120.824 75.5117 122.582 75.5117H124.762V80.1875C124.785 85.8359 125.875 90.1602 128.031 93.1602C130.188 96.1367 133.281 97.625 137.312 97.625C140.594 97.625 143.312 96.4062 145.469 93.9688C147.625 91.5078 148.703 88.4141 148.703 84.6875C148.703 80.75 147.332 77.5508 144.59 75.0898ZM139.949 78.3242C140.605 79.5898 140.934 80.9727 140.934 82.4727C140.934 84.0195 140.523 85.2383 139.703 86.1289C138.883 87.0195 137.84 87.4648 136.574 87.4648L135.977 87.4297C132.461 87.1016 130.703 84.3945 130.703 79.3086V75.5117H137.242C138.367 76.1211 139.27 77.0586 139.949 78.3242ZM109.961 45.3477H100.609V55.5078H109.961V61.0625H117.414V55.5078H137.91C145.105 55.3672 148.703 51.7344 148.703 44.6094C148.703 42.5 148.398 40.4492 147.789 38.457H140.09C140.254 39.3242 140.336 40.3203 140.336 41.4453C140.336 42.9688 140.031 44 139.422 44.5391C138.812 45.0781 137.805 45.3477 136.398 45.3477H117.414V38.8438H109.961V45.3477ZM143.57 29.3164C146.992 25.8008 148.703 21.2539 148.703 15.6758C148.703 12.5117 148.105 9.62891 146.91 7.02734C145.691 4.42578 144.004 2.36328 141.848 0.839844L136.258 5.83203C139.094 8.03516 140.512 11.0938 140.512 15.0078C140.512 17.5391 139.762 19.6367 138.262 21.3008C136.762 22.9414 134.77 23.9258 132.285 24.2539V0.03125H128.137C122.113 0.03125 117.461 1.53125 114.18 4.53125C110.898 7.50781 109.258 11.5977 109.258 16.8008C109.258 20.2695 110.078 23.3633 111.719 26.082C113.336 28.7773 115.656 30.8633 118.68 32.3398C121.68 33.8164 125.09 34.5547 128.91 34.5547H129.895C135.59 34.5547 140.148 32.8086 143.57 29.3164ZM119.523 21.7578C118.164 20.4922 117.484 18.8516 117.484 16.8359C117.484 14.6797 118.105 13.0156 119.348 11.8438C120.566 10.6719 122.301 10.0625 124.551 10.0156H125.359V24.1484C122.828 23.7969 120.883 23 119.523 21.7578ZM22.3047 354.965C21.1328 355.996 19.6094 356.512 17.7344 356.512C15.2969 356.512 13.4805 355.656 12.2852 353.945C11.0898 352.234 10.4922 349.422 10.4922 345.508V344.453C10.4922 340.586 11.0898 337.797 12.2852 336.086C13.5039 334.352 15.2969 333.484 17.6641 333.484C19.5859 333.484 21.1328 334.105 22.3047 335.348C23.4766 336.566 24.0859 338.16 24.1328 340.129H33.6602C33.6133 335.629 32.1484 332.031 29.2656 329.336C26.4062 326.617 22.5977 325.258 17.8398 325.258C12.4023 325.258 8.125 327.004 5.00781 330.496C1.89062 333.988 0.332031 338.664 0.332031 344.523V345.191C0.332031 351.285 1.90234 356.066 5.04297 359.535C8.18359 362.98 12.4727 364.703 17.9102 364.703C20.8164 364.703 23.4648 364.117 25.8555 362.945C28.2695 361.75 30.168 360.086 31.5508 357.953C32.9336 355.797 33.6367 353.43 33.6602 350.852H24.1328C24.0859 352.562 23.4766 353.934 22.3047 354.965ZM57.1797 335.207C58.2344 335.207 59.4531 335.301 60.8359 335.488L60.9766 325.715C59.9922 325.41 58.9375 325.258 57.8125 325.258C54.2031 325.258 51.3789 327.004 49.3398 330.496L49.0586 325.961H39.4609V364H49.6211V339.109C50.8164 336.508 53.3359 335.207 57.1797 335.207ZM68.9219 359.57C72.4375 362.992 76.9844 364.703 82.5625 364.703C85.7266 364.703 88.6094 364.105 91.2109 362.91C93.8125 361.691 95.875 360.004 97.3984 357.848L92.4062 352.258C90.2031 355.094 87.1445 356.512 83.2305 356.512C80.6992 356.512 78.6016 355.762 76.9375 354.262C75.2969 352.762 74.3125 350.77 73.9844 348.285H98.207V344.137C98.207 338.113 96.707 333.461 93.707 330.18C90.7305 326.898 86.6406 325.258 81.4375 325.258C77.9688 325.258 74.875 326.078 72.1562 327.719C69.4609 329.336 67.375 331.656 65.8984 334.68C64.4219 337.68 63.6836 341.09 63.6836 344.91V345.895C63.6836 351.59 65.4297 356.148 68.9219 359.57ZM76.4805 335.523C77.7461 334.164 79.3867 333.484 81.4023 333.484C83.5586 333.484 85.2227 334.105 86.3945 335.348C87.5664 336.566 88.1758 338.301 88.2227 340.551V341.359H74.0898C74.4414 338.828 75.2383 336.883 76.4805 335.523ZM125.031 360.59C125.242 361.949 125.582 363.086 126.051 364H136.316V363.402C135.332 361.551 134.828 358.82 134.805 355.211V338.723C134.805 334.457 133.422 331.152 130.656 328.809C127.914 326.441 124.199 325.258 119.512 325.258C116.418 325.258 113.629 325.797 111.145 326.875C108.66 327.93 106.738 329.395 105.379 331.27C104.02 333.145 103.34 335.184 103.34 337.387H113.5C113.5 335.957 113.98 334.832 114.941 334.012C115.926 333.191 117.273 332.781 118.984 332.781C120.93 332.781 122.348 333.309 123.238 334.363C124.152 335.418 124.609 336.824 124.609 338.582V340.762H119.934C114.285 340.785 109.961 341.875 106.961 344.031C103.984 346.188 102.496 349.281 102.496 353.312C102.496 356.594 103.715 359.312 106.152 361.469C108.613 363.625 111.707 364.703 115.434 364.703C119.371 364.703 122.57 363.332 125.031 360.59ZM121.797 355.949C120.531 356.605 119.148 356.934 117.648 356.934C116.102 356.934 114.883 356.523 113.992 355.703C113.102 354.883 112.656 353.84 112.656 352.574L112.691 351.977C113.02 348.461 115.727 346.703 120.812 346.703H124.609V353.242C124 354.367 123.062 355.27 121.797 355.949ZM154.773 325.961V316.609H144.613V325.961H139.059V333.414H144.613V353.91C144.754 361.105 148.387 364.703 155.512 364.703C157.621 364.703 159.672 364.398 161.664 363.789V356.09C160.797 356.254 159.801 356.336 158.676 356.336C157.152 356.336 156.121 356.031 155.582 355.422C155.043 354.812 154.773 353.805 154.773 352.398V333.414H161.277V325.961H154.773ZM170.805 359.57C174.32 362.992 178.867 364.703 184.445 364.703C187.609 364.703 190.492 364.105 193.094 362.91C195.695 361.691 197.758 360.004 199.281 357.848L194.289 352.258C192.086 355.094 189.027 356.512 185.113 356.512C182.582 356.512 180.484 355.762 178.82 354.262C177.18 352.762 176.195 350.77 175.867 348.285H200.09V344.137C200.09 338.113 198.59 333.461 195.59 330.18C192.613 326.898 188.523 325.258 183.32 325.258C179.852 325.258 176.758 326.078 174.039 327.719C171.344 329.336 169.258 331.656 167.781 334.68C166.305 337.68 165.566 341.09 165.566 344.91V345.895C165.566 351.59 167.312 356.148 170.805 359.57ZM178.363 335.523C179.629 334.164 181.27 333.484 183.285 333.484C185.441 333.484 187.105 334.105 188.277 335.348C189.449 336.566 190.059 338.301 190.105 340.551V341.359H175.973C176.324 338.828 177.121 336.883 178.363 335.523ZM282 262.883V252.688H320.039V262.883H282ZM329.883 252.09C331.406 252.09 332.66 252.594 333.645 253.602C334.629 254.633 335.121 256.027 335.121 257.785C335.121 259.52 334.629 260.902 333.645 261.934C332.66 262.965 331.406 263.48 329.883 263.48C328.336 263.48 327.07 262.953 326.086 261.898C325.102 260.867 324.609 259.496 324.609 257.785C324.609 256.074 325.102 254.691 326.086 253.637C327.07 252.605 328.336 252.09 329.883 252.09ZM320.039 280.637L315.645 280.953C319.043 283.672 320.742 287.316 320.742 291.887C320.742 295.918 319.559 298.918 317.191 300.887C314.824 302.855 311.285 303.863 306.574 303.91H282V293.75H306.328C308.484 293.75 310.043 293.281 311.004 292.344C311.988 291.406 312.48 289.848 312.48 287.668C312.48 284.809 311.262 282.664 308.824 281.234H282V271.074H320.039V280.637ZM329.391 323.809H320.039V330.312H312.586V323.809H293.602C292.195 323.809 291.188 324.078 290.578 324.617C289.969 325.156 289.664 326.188 289.664 327.711C289.664 328.836 289.746 329.832 289.91 330.699H282.211C281.602 328.707 281.297 326.656 281.297 324.547C281.297 317.422 284.895 313.789 292.09 313.648H312.586V308.094H320.039V313.648H329.391V323.809ZM281.297 353.48C281.297 347.902 283.008 343.355 286.43 339.84C289.852 336.348 294.41 334.602 300.105 334.602H301.09C304.91 334.602 308.32 335.34 311.32 336.816C314.344 338.293 316.664 340.379 318.281 343.074C319.922 345.793 320.742 348.887 320.742 352.355C320.742 357.559 319.102 361.648 315.82 364.625C312.539 367.625 307.887 369.125 301.863 369.125H297.715V344.902C295.23 345.23 293.238 346.215 291.738 347.855C290.238 349.52 289.488 351.617 289.488 354.148C289.488 358.062 290.906 361.121 293.742 363.324L288.152 368.316C285.996 366.793 284.309 364.73 283.09 362.129C281.895 359.527 281.297 356.645 281.297 353.48ZM312.516 352.32C312.516 350.305 311.836 348.664 310.477 347.398C309.117 346.156 307.172 345.359 304.641 345.008V359.141H305.449C307.699 359.094 309.434 358.484 310.652 357.312C311.895 356.141 312.516 354.477 312.516 352.32ZM310.512 396.301C310.699 394.918 310.793 393.699 310.793 392.645C310.793 388.801 309.492 386.281 306.891 385.086H282V374.926H320.039V384.523L315.504 384.805C318.996 386.844 320.742 389.668 320.742 393.277C320.742 394.402 320.59 395.457 320.285 396.441L310.512 396.301ZM282 422.211C282.914 421.742 284.051 421.402 285.41 421.191C282.668 418.73 281.297 415.531 281.297 411.594C281.297 407.867 282.375 404.773 284.531 402.312C286.688 399.875 289.406 398.656 292.688 398.656C296.719 398.656 299.812 400.145 301.969 403.121C304.125 406.121 305.215 410.445 305.238 416.094V420.77H307.418C309.176 420.77 310.582 420.312 311.637 419.398C312.691 418.508 313.219 417.09 313.219 415.145C313.219 413.434 312.809 412.086 311.988 411.102C311.168 410.141 310.043 409.66 308.613 409.66V399.5C310.816 399.5 312.855 400.18 314.73 401.539C316.605 402.898 318.07 404.82 319.125 407.305C320.203 409.789 320.742 412.578 320.742 415.672C320.742 420.359 319.559 424.074 317.191 426.816C314.848 429.582 311.543 430.965 307.277 430.965H290.789C287.18 430.988 284.449 431.492 282.598 432.477H282V422.211ZM289.066 413.809C289.066 415.309 289.395 416.691 290.051 417.957C290.73 419.223 291.633 420.16 292.758 420.77H299.297V416.973C299.297 411.887 297.539 409.18 294.023 408.852L293.426 408.816C292.16 408.816 291.117 409.262 290.297 410.152C289.477 411.043 289.066 412.262 289.066 413.809ZM289.488 454.59C289.488 456.465 290.004 457.988 291.035 459.16C292.066 460.332 293.438 460.941 295.148 460.988V470.516C292.57 470.492 290.203 469.789 288.047 468.406C285.914 467.023 284.25 465.125 283.055 462.711C281.883 460.32 281.297 457.672 281.297 454.766C281.297 449.328 283.02 445.039 286.465 441.898C289.934 438.758 294.715 437.187 300.809 437.187H301.477C307.336 437.187 312.012 438.746 315.504 441.863C318.996 444.98 320.742 449.258 320.742 454.695C320.742 459.453 319.383 463.262 316.664 466.121C313.969 469.004 310.371 470.469 305.871 470.516V460.988C307.84 460.941 309.434 460.332 310.652 459.16C311.895 457.988 312.516 456.441 312.516 454.52C312.516 452.152 311.648 450.359 309.914 449.141C308.203 447.945 305.414 447.348 301.547 447.348H300.492C296.578 447.348 293.766 447.945 292.055 449.141C290.344 450.336 289.488 452.152 289.488 454.59ZM329.391 488.48H320.039V494.984H312.586V488.48H293.602C292.195 488.48 291.188 488.75 290.578 489.289C289.969 489.828 289.664 490.859 289.664 492.383C289.664 493.508 289.746 494.504 289.91 495.371H282.211C281.602 493.379 281.297 491.328 281.297 489.219C281.297 482.094 284.895 478.461 292.09 478.32H312.586V472.766H320.039V478.32H329.391V488.48ZM239.996 170.453H258.488L262.039 181H273.254L254.094 129.812H244.32L225.266 181H236.48L239.996 170.453ZM255.641 161.91H242.844L249.207 142.75L255.641 161.91ZM296.105 167.57C297.348 168.273 297.969 169.246 297.969 170.488C297.969 171.684 297.465 172.656 296.457 173.406C295.473 174.133 294.008 174.496 292.062 174.496C289.977 174.496 288.312 174.016 287.07 173.055C285.828 172.094 285.16 170.711 285.066 168.906H275.434C275.434 171.203 276.137 173.348 277.543 175.34C278.949 177.309 280.883 178.867 283.344 180.016C285.828 181.141 288.664 181.703 291.852 181.703C296.562 181.703 300.406 180.637 303.383 178.504C306.359 176.348 307.848 173.535 307.848 170.066C307.848 165.215 305.164 161.805 299.797 159.836C298.062 159.203 295.93 158.641 293.398 158.148C290.867 157.633 289.062 157.035 287.984 156.355C286.93 155.652 286.402 154.738 286.402 153.613C286.402 152.418 286.871 151.434 287.809 150.66C288.746 149.887 290.07 149.5 291.781 149.5C293.773 149.5 295.238 149.98 296.176 150.941C297.113 151.879 297.582 153.074 297.582 154.527H307.742C307.742 150.895 306.289 147.941 303.383 145.668C300.5 143.395 296.645 142.258 291.816 142.258C287.293 142.258 283.625 143.395 280.812 145.668C278.023 147.918 276.629 150.73 276.629 154.105C276.629 159.895 281.152 163.738 290.199 165.637C292.918 166.199 294.887 166.844 296.105 167.57ZM324.582 169.398L328.238 165.742L338.012 181H349.684L334.742 158.816L348.488 142.961H336.289L326.551 154.387L324.582 156.918V127H314.422V181H324.582V169.398ZM459.371 91.5273C465.348 91.5273 470.07 92.8516 473.539 95.5C477.008 98.1719 478.742 101.828 478.742 106.469C478.742 110.547 477.184 113.793 474.066 116.207L478.039 116.875V125.805H425.375V115.609H443.27C440.621 113.266 439.297 110.195 439.297 106.398C439.297 101.875 441.055 98.2656 444.57 95.5703C448.086 92.875 453.02 91.5273 459.371 91.5273ZM458.633 101.688C455 101.688 452.234 102.32 450.336 103.586C448.438 104.875 447.488 106.68 447.488 109C447.488 112.117 448.73 114.32 451.215 115.609H466.93C469.32 114.344 470.516 112.164 470.516 109.07C470.516 106.727 469.566 104.91 467.668 103.621C465.77 102.332 462.758 101.688 458.633 101.688ZM443.867 156.602C440.82 154.094 439.297 150.625 439.297 146.195C439.297 142.117 440.469 139 442.812 136.844C445.156 134.711 448.59 133.621 453.113 133.574H478.039V143.734H453.465C449.504 143.734 447.523 145.539 447.523 149.148C447.523 152.594 448.719 154.961 451.109 156.25H478.039V166.445H440V156.883L443.867 156.602ZM439.297 191.617C439.297 186.039 441.008 181.492 444.43 177.977C447.852 174.484 452.41 172.738 458.105 172.738H459.09C462.91 172.738 466.32 173.477 469.32 174.953C472.344 176.43 474.664 178.516 476.281 181.211C477.922 183.93 478.742 187.023 478.742 190.492C478.742 195.695 477.102 199.785 473.82 202.762C470.539 205.762 465.887 207.262 459.863 207.262H455.715V183.039C453.23 183.367 451.238 184.352 449.738 185.992C448.238 187.656 447.488 189.754 447.488 192.285C447.488 196.199 448.906 199.258 451.742 201.461L446.152 206.453C443.996 204.93 442.309 202.867 441.09 200.266C439.895 197.664 439.297 194.781 439.297 191.617ZM470.516 190.457C470.516 188.441 469.836 186.801 468.477 185.535C467.117 184.293 465.172 183.496 462.641 183.145V197.277H463.449C465.699 197.23 467.434 196.621 468.652 195.449C469.895 194.277 470.516 192.613 470.516 190.457ZM450.512 233.664C451.754 233.664 452.727 233.043 453.43 231.801C454.156 230.582 454.801 228.613 455.363 225.895C457.262 216.848 461.105 212.324 466.895 212.324C470.27 212.324 473.082 213.719 475.332 216.508C477.605 219.32 478.742 222.988 478.742 227.512C478.742 232.34 477.605 236.195 475.332 239.078C473.059 241.984 470.105 243.437 466.473 243.437V233.277C467.926 233.277 469.121 232.809 470.059 231.871C471.02 230.934 471.5 229.469 471.5 227.477C471.5 225.766 471.113 224.441 470.34 223.504C469.566 222.566 468.582 222.098 467.387 222.098C466.262 222.098 465.348 222.625 464.645 223.68C463.965 224.758 463.367 226.562 462.852 229.094C462.359 231.625 461.797 233.758 461.164 235.492C459.195 240.859 455.785 243.543 450.934 243.543C447.465 243.543 444.652 242.055 442.496 239.078C440.363 236.102 439.297 232.258 439.297 227.547C439.297 224.359 439.859 221.523 440.984 219.039C442.133 216.578 443.691 214.645 445.66 213.238C447.652 211.832 449.797 211.129 452.094 211.129V220.762C450.289 220.855 448.906 221.523 447.945 222.766C446.984 224.008 446.504 225.672 446.504 227.758C446.504 229.703 446.867 231.168 447.594 232.152C448.344 233.16 449.316 233.664 450.512 233.664ZM487.391 262.281H478.039V268.785H470.586V262.281H451.602C450.195 262.281 449.188 262.551 448.578 263.09C447.969 263.629 447.664 264.66 447.664 266.184C447.664 267.309 447.746 268.305 447.91 269.172H440.211C439.602 267.18 439.297 265.129 439.297 263.02C439.297 255.895 442.895 252.262 450.09 252.121H470.586V246.566H478.039V252.121H487.391V262.281ZM440 285.168V274.973H478.039V285.168H440ZM487.883 274.375C489.406 274.375 490.66 274.879 491.645 275.887C492.629 276.918 493.121 278.312 493.121 280.07C493.121 281.805 492.629 283.187 491.645 284.219C490.66 285.25 489.406 285.766 487.883 285.766C486.336 285.766 485.07 285.238 484.086 284.184C483.102 283.152 482.609 281.781 482.609 280.07C482.609 278.359 483.102 276.977 484.086 275.922C485.07 274.891 486.336 274.375 487.883 274.375ZM459.371 291.988C463.145 291.988 466.508 292.715 469.461 294.168C472.414 295.621 474.699 297.707 476.316 300.426C477.934 303.168 478.742 306.344 478.742 309.953C478.742 315.086 477.172 319.27 474.031 322.504C470.891 325.762 466.625 327.578 461.234 327.953L458.633 328.023C452.797 328.023 448.109 326.395 444.57 323.137C441.055 319.879 439.297 315.508 439.297 310.023C439.297 304.539 441.055 300.156 444.57 296.875C448.086 293.617 452.867 291.988 458.914 291.988H459.371ZM458.633 302.148C455.023 302.148 452.258 302.828 450.336 304.187C448.438 305.547 447.488 307.492 447.488 310.023C447.488 312.484 448.426 314.406 450.301 315.789C452.199 317.172 455.223 317.863 459.371 317.863C462.91 317.863 465.652 317.172 467.598 315.789C469.543 314.406 470.516 312.461 470.516 309.953C470.516 307.469 469.543 305.547 467.598 304.187C465.676 302.828 462.688 302.148 458.633 302.148ZM478.039 343.633L473.645 343.949C477.043 346.668 478.742 350.312 478.742 354.883C478.742 358.914 477.559 361.914 475.191 363.883C472.824 365.852 469.285 366.859 464.574 366.906H440V356.746H464.328C466.484 356.746 468.043 356.277 469.004 355.34C469.988 354.402 470.48 352.844 470.48 350.664C470.48 347.805 469.262 345.66 466.824 344.23H440V334.07H478.039V343.633ZM450.512 395.242C451.754 395.242 452.727 394.621 453.43 393.379C454.156 392.16 454.801 390.191 455.363 387.473C457.262 378.426 461.105 373.902 466.895 373.902C470.27 373.902 473.082 375.297 475.332 378.086C477.605 380.898 478.742 384.566 478.742 389.09C478.742 393.918 477.605 397.773 475.332 400.656C473.059 403.562 470.105 405.016 466.473 405.016V394.855C467.926 394.855 469.121 394.387 470.059 393.449C471.02 392.512 471.5 391.047 471.5 389.055C471.5 387.344 471.113 386.02 470.34 385.082C469.566 384.145 468.582 383.676 467.387 383.676C466.262 383.676 465.348 384.203 464.645 385.258C463.965 386.336 463.367 388.141 462.852 390.672C462.359 393.203 461.797 395.336 461.164 397.07C459.195 402.437 455.785 405.121 450.934 405.121C447.465 405.121 444.652 403.633 442.496 400.656C440.363 397.68 439.297 393.836 439.297 389.125C439.297 385.937 439.859 383.102 440.984 380.617C442.133 378.156 443.691 376.223 445.66 374.816C447.652 373.41 449.797 372.707 452.094 372.707V382.34C450.289 382.434 448.906 383.102 447.945 384.344C446.984 385.586 446.504 387.25 446.504 389.336C446.504 391.281 446.867 392.746 447.594 393.73C448.344 394.738 449.316 395.242 450.512 395.242ZM279.32 39.5898C279.531 40.9492 279.871 42.0859 280.34 43H290.605V42.4023C289.621 40.5508 289.117 37.8203 289.094 34.2109V17.7227C289.094 13.457 287.711 10.1523 284.945 7.80859C282.203 5.44141 278.488 4.25781 273.801 4.25781C270.707 4.25781 267.918 4.79688 265.434 5.875C262.949 6.92969 261.027 8.39453 259.668 10.2695C258.309 12.1445 257.629 14.1836 257.629 16.3867H267.789C267.789 14.957 268.27 13.832 269.23 13.0117C270.215 12.1914 271.562 11.7812 273.273 11.7812C275.219 11.7812 276.637 12.3086 277.527 13.3633C278.441 14.418 278.898 15.8242 278.898 17.582V19.7617H274.223C268.574 19.7852 264.25 20.875 261.25 23.0312C258.273 25.1875 256.785 28.2812 256.785 32.3125C256.785 35.5938 258.004 38.3125 260.441 40.4688C262.902 42.625 265.996 43.7031 269.723 43.7031C273.66 43.7031 276.859 42.332 279.32 39.5898ZM276.086 34.9492C274.82 35.6055 273.438 35.9336 271.938 35.9336C270.391 35.9336 269.172 35.5234 268.281 34.7031C267.391 33.8828 266.945 32.8398 266.945 31.5742L266.98 30.9766C267.309 27.4609 270.016 25.7031 275.102 25.7031H278.898V32.2422C278.289 33.3672 277.352 34.2695 276.086 34.9492ZM306.566 9.35547L306.25 4.96094H296.688V43H306.848V16.1758C308.277 13.7383 310.422 12.5195 313.281 12.5195C315.461 12.5195 317.02 13.0117 317.957 13.9961C318.895 14.957 319.363 16.5156 319.363 18.6719V43H329.523V18.4258C329.477 13.7148 328.469 10.1758 326.5 7.80859C324.531 5.44141 321.531 4.25781 317.5 4.25781C312.93 4.25781 309.285 5.95703 306.566 9.35547ZM355.996 29.5703C357.238 30.2734 357.859 31.2461 357.859 32.4883C357.859 33.6836 357.355 34.6562 356.348 35.4062C355.363 36.1328 353.898 36.4961 351.953 36.4961C349.867 36.4961 348.203 36.0156 346.961 35.0547C345.719 34.0938 345.051 32.7109 344.957 30.9062H335.324C335.324 33.2031 336.027 35.3477 337.434 37.3398C338.84 39.3086 340.773 40.8672 343.234 42.0156C345.719 43.1406 348.555 43.7031 351.742 43.7031C356.453 43.7031 360.297 42.6367 363.273 40.5039C366.25 38.3477 367.738 35.5352 367.738 32.0664C367.738 27.2148 365.055 23.8047 359.688 21.8359C357.953 21.2031 355.82 20.6406 353.289 20.1484C350.758 19.6328 348.953 19.0352 347.875 18.3555C346.82 17.6523 346.293 16.7383 346.293 15.6133C346.293 14.418 346.762 13.4336 347.699 12.6602C348.637 11.8867 349.961 11.5 351.672 11.5C353.664 11.5 355.129 11.9805 356.066 12.9414C357.004 13.8789 357.473 15.0742 357.473 16.5273H367.633C367.633 12.8945 366.18 9.94141 363.273 7.66797C360.391 5.39453 356.535 4.25781 351.707 4.25781C347.184 4.25781 343.516 5.39453 340.703 7.66797C337.914 9.91797 336.52 12.7305 336.52 16.1055C336.52 21.8945 341.043 25.7383 350.09 27.6367C352.809 28.1992 354.777 28.8438 355.996 29.5703ZM412.387 4.96094L407.395 29.1836L400.469 4.96094H393.121L386.16 29.1484L381.203 4.96094H371.395L381.098 43H389.57L396.777 19.0586L403.984 43H412.492L422.195 4.96094H412.387ZM431.125 38.5703C434.641 41.9922 439.188 43.7031 444.766 43.7031C447.93 43.7031 450.812 43.1055 453.414 41.9102C456.016 40.6914 458.078 39.0039 459.602 36.8477L454.609 31.2578C452.406 34.0938 449.348 35.5117 445.434 35.5117C442.902 35.5117 440.805 34.7617 439.141 33.2617C437.5 31.7617 436.516 29.7695 436.188 27.2852H460.41V23.1367C460.41 17.1133 458.91 12.4609 455.91 9.17969C452.934 5.89844 448.844 4.25781 443.641 4.25781C440.172 4.25781 437.078 5.07812 434.359 6.71875C431.664 8.33594 429.578 10.6562 428.102 13.6797C426.625 16.6797 425.887 20.0898 425.887 23.9102V24.8945C425.887 30.5898 427.633 35.1484 431.125 38.5703ZM438.684 14.5234C439.949 13.1641 441.59 12.4844 443.605 12.4844C445.762 12.4844 447.426 13.1055 448.598 14.3477C449.77 15.5664 450.379 17.3008 450.426 19.5508V20.3594H436.293C436.645 17.8281 437.441 15.8828 438.684 14.5234ZM483.93 14.207C484.984 14.207 486.203 14.3008 487.586 14.4883L487.727 4.71484C486.742 4.41016 485.688 4.25781 484.562 4.25781C480.953 4.25781 478.129 6.00391 476.09 9.49609L475.809 4.96094H466.211V43H476.371V18.1094C477.566 15.5078 480.086 14.207 483.93 14.207Z" fill="white"/>
</svg>
