<svg width="252" height="247" viewBox="0 0 252 247" fill="none" xmlns="http://www.w3.org/2000/svg">
<path fill-rule="evenodd" clip-rule="evenodd" d="M93.771 94.6626C98.8085 100.425 106.67 105.978 117.356 111.321L132.011 82.012L125.256 78.062C118.196 73.4822 113.33 66.8989 110.659 58.3121L106.48 44.6304C103.084 33.8683 99.2486 25.6058 94.9744 19.843C90.6238 14.0421 85.2047 9.51966 78.717 6.27566C64.4439 -0.861152 51.1821 -1.91087 38.9316 3.12651C26.6047 8.12573 16.3958 18.7159 8.30485 34.8971C0.290247 50.9257 -1.92348 65.6567 1.66367 79.0903C5.28898 92.4476 14.3526 102.847 28.8546 110.289L45.4563 77.0875C39.4265 73.8816 35.5339 69.7408 33.7785 64.6651C31.9849 59.4748 32.5002 54.0556 35.3244 48.4074C41.2781 36.5005 50.7045 33.772 63.6037 40.2218C67.8779 42.3591 71.3889 45.5458 74.1366 49.782C76.808 53.98 79.4984 61.0975 82.2079 71.1346C84.8791 81.0571 88.7335 88.8998 93.771 94.6626ZM140.826 120.767C142.391 125.843 145.73 129.659 150.844 132.216C155.881 134.735 160.881 135.136 165.842 133.419C170.842 131.625 174.734 127.942 177.52 122.371C180.306 116.799 180.898 111.513 179.295 106.514C177.731 101.438 174.43 97.6406 169.392 95.1218C164.278 92.5647 159.202 92.2212 154.165 94.0911C149.089 95.8465 145.196 99.4338 142.487 104.853C139.777 110.272 139.223 115.577 140.826 120.767ZM157.517 152.186C152.48 146.424 144.618 140.871 133.932 135.529L119.278 164.838L126.033 168.788C133.093 173.368 137.959 179.951 140.631 188.537L144.81 202.219C148.207 212.981 152.043 221.243 156.317 227.006C160.668 232.807 166.087 237.329 172.575 240.573C186.848 247.709 200.11 248.758 212.361 243.72C224.687 238.72 234.896 228.13 242.986 211.948C251 195.919 253.213 181.188 249.625 167.755C245.999 154.398 236.935 143.998 222.433 136.557L205.833 169.759C211.863 172.965 215.755 177.106 217.511 182.181C219.305 187.371 218.79 192.791 215.966 198.439C210.013 210.346 200.586 213.075 187.687 206.626C183.413 204.489 179.901 201.302 177.154 197.066C174.482 192.868 171.791 185.751 169.081 175.714C166.41 165.791 162.555 157.949 157.517 152.186ZM110.461 126.084C108.896 121.008 105.557 117.192 100.443 114.635C95.4052 112.116 90.4058 111.716 85.4446 113.433C80.4452 115.227 76.5526 118.91 73.7668 124.482C70.981 130.054 70.3896 135.339 71.9926 140.339C73.5574 145.414 76.8587 149.212 81.8963 151.73C87.0103 154.287 92.0861 154.63 97.1236 152.76C102.199 151.005 106.092 147.417 108.801 141.998C111.511 136.579 112.064 131.274 110.461 126.084Z" fill="url(#paint0_linear)"/>
<defs>
<linearGradient id="paint0_linear" x1="30.2791" y1="20.5548" x2="249.468" y2="247.805" gradientUnits="userSpaceOnUse">
<stop stop-color="#0075FF"/>
<stop offset="1" stop-color="#010A1F"/>
</linearGradient>
</defs>
</svg>
