<svg width="939" height="264" viewBox="0 0 939 264" fill="none" xmlns="http://www.w3.org/2000/svg">
<path fill-rule="evenodd" clip-rule="evenodd" d="M125.108 118.675C113.716 112.979 105.335 107.059 99.965 100.915C94.5947 94.772 90.4857 86.4113 87.638 75.8333C84.7496 65.1333 81.8815 57.5456 79.0336 53.0703C76.1045 48.5543 72.3615 45.1571 67.8049 42.8787C54.0537 36.0028 44.0047 38.9115 37.6577 51.6049C34.647 57.6262 34.0976 63.4033 36.0097 68.9364C37.8811 74.3475 42.0308 78.7618 48.4589 82.1794L30.7606 117.575C15.3007 109.641 5.63834 98.5542 1.77356 84.3146C-2.05053 69.9936 0.309417 54.2895 8.85341 37.2022C17.4788 19.9522 28.362 8.66247 41.5032 3.33303C54.5629 -2.03708 68.7007 -0.918031 83.9165 6.69019C90.8328 10.1485 96.6099 14.9697 101.248 21.1538C105.804 27.2972 109.893 36.1054 113.514 47.5784L117.968 62.1639C120.816 71.3179 126.003 78.336 133.53 83.2183L140.731 87.4292L125.108 118.675ZM160.808 140.95C155.356 138.224 151.796 134.155 150.128 128.744C148.42 123.211 149.01 117.556 151.898 111.779C154.787 106.002 158.937 102.178 164.348 100.306C169.718 98.3128 175.129 98.679 180.581 101.405C185.951 104.09 189.47 108.138 191.138 113.549C192.847 118.879 192.216 124.514 189.246 130.454C186.276 136.394 182.126 140.32 176.797 142.232C171.508 144.062 166.178 143.635 160.808 140.95ZM142.87 144.526C154.262 150.222 162.643 156.141 168.013 162.284C173.384 168.428 177.493 176.788 180.341 187.366C183.23 198.066 186.098 205.653 188.946 210.129C191.876 214.645 195.619 218.042 200.176 220.32C213.927 227.195 223.976 224.286 230.322 211.592C233.333 205.571 233.882 199.794 231.97 194.261C230.098 188.85 225.948 184.436 219.52 181.018L237.217 145.622C252.677 153.555 262.34 164.642 266.205 178.881C270.03 193.202 267.671 208.906 259.127 225.994C250.503 243.244 239.62 254.534 226.479 259.864C213.419 265.235 199.282 264.116 184.066 256.509C177.149 253.051 171.372 248.23 166.734 242.046C162.177 235.903 158.088 227.095 154.467 215.622L150.011 201.037C147.163 191.883 141.976 184.865 134.449 179.983L127.248 175.772L142.87 144.526ZM107.169 122.253C112.62 124.978 116.18 129.047 117.849 134.458C119.558 139.991 118.968 145.646 116.079 151.423C113.191 157.2 109.041 161.025 103.63 162.896C98.2599 164.89 92.8489 164.524 87.3971 161.798C82.0267 159.113 78.5074 155.065 76.8392 149.654C75.1303 144.325 75.7608 138.69 78.7306 132.75C81.7004 126.81 85.8501 122.884 91.1797 120.971C96.4686 119.14 101.798 119.567 107.169 122.253ZM323.843 129.657H371.694L380.883 156.949H409.903L360.323 24.4927H335.032L285.725 156.949H314.745L323.843 129.657ZM364.326 107.551H331.211L347.678 57.9707L364.326 107.551ZM469.035 122.198C472.25 124.017 473.857 126.534 473.857 129.748C473.857 132.841 472.553 135.358 469.945 137.299C467.398 139.179 463.607 140.119 458.574 140.119C453.176 140.119 448.87 138.876 445.655 136.389C442.441 133.903 440.713 130.325 440.47 125.655H415.543C415.543 131.598 417.363 137.148 421.002 142.303C424.641 147.397 429.644 151.43 436.012 154.402C442.441 157.313 449.78 158.769 458.028 158.769C470.218 158.769 480.165 156.009 487.867 150.49C495.569 144.911 499.42 137.633 499.42 128.657C499.42 116.102 492.476 107.278 478.588 102.184C474.1 100.546 468.581 99.0905 462.031 97.8169C455.481 96.4826 450.811 94.9361 448.021 93.1773C445.292 91.3578 443.927 88.9925 443.927 86.0814C443.927 82.9883 445.14 80.4411 447.566 78.4397C449.992 76.4383 453.418 75.4376 457.846 75.4376C463.001 75.4376 466.792 76.6809 469.217 79.1674C471.643 81.5934 472.856 84.6865 472.856 88.4467H499.148C499.148 79.0462 495.387 71.4044 487.867 65.5215C480.407 59.6386 470.43 56.6971 457.937 56.6971C446.232 56.6971 436.74 59.6386 429.462 65.5215C422.245 71.3438 418.636 78.6216 418.636 87.355C418.636 102.335 430.342 112.282 453.752 117.194C460.787 118.65 465.882 120.318 469.035 122.198ZM542.724 126.928L552.185 117.467L577.475 156.949H607.678L569.015 99.5454L604.585 58.5166H573.018L547.818 88.0828L542.724 94.6329V17.2149H516.432V156.949H542.724V126.928ZM617.503 80.714C613.743 88.3557 611.863 97.0588 611.863 106.823V108.006C611.863 123.653 616.078 136.026 624.508 145.123C632.999 154.22 644.34 158.769 658.532 158.769C672.724 158.769 684.035 154.22 692.465 145.123C700.895 135.965 705.11 123.835 705.11 108.734L704.928 102.002C703.958 88.0525 699.258 77.0144 690.828 68.8875C682.458 60.7606 671.632 56.6971 658.35 56.6971C649.01 56.6971 640.792 58.7895 633.697 62.9743C626.661 67.159 621.264 73.0723 617.503 80.714ZM643.431 130.203C639.913 125.23 638.154 118.074 638.154 108.734C638.154 98.2414 639.913 90.5087 643.431 85.5356C646.948 80.5017 651.921 77.9848 658.35 77.9848C664.84 77.9848 669.873 80.5017 673.452 85.5356C677.03 90.5694 678.819 97.6653 678.819 106.823C678.819 117.558 677.03 125.382 673.452 130.294C669.873 135.146 664.9 137.572 658.532 137.572C651.982 137.572 646.948 135.116 643.431 130.203ZM728.49 77.8029V156.949H754.872V77.8029H774.432V58.5166H754.872V50.6019C754.872 41.3227 759.815 36.6831 769.701 36.6831C772.855 36.6831 775.523 36.956 777.707 37.5018L777.98 17.1239C772.703 15.9109 768.246 15.3044 764.607 15.3044C753.205 15.3044 744.32 18.3672 737.952 24.4927C731.644 30.5576 728.49 39.109 728.49 50.1471V58.5166H713.844V77.8029H728.49ZM795.265 77.8029V156.949H821.647V77.8029H841.206V58.5166H821.647V50.6019C821.647 41.3227 826.59 36.6831 836.475 36.6831C839.629 36.6831 842.298 36.956 844.481 37.5018L844.754 17.1239C839.477 15.9109 835.02 15.3044 831.381 15.3044C819.979 15.3044 811.094 18.3672 804.726 24.4927C798.418 30.5576 795.265 39.109 795.265 50.1471V58.5166H780.618V77.8029H795.265ZM862.675 145.487C871.773 154.341 883.539 158.769 897.973 158.769C906.161 158.769 913.62 157.222 920.352 154.129C927.084 150.975 932.421 146.609 936.364 141.029L923.445 126.564C917.744 133.903 909.83 137.572 899.701 137.572C893.151 137.572 887.723 135.631 883.417 131.75C879.172 127.868 876.625 122.713 875.776 116.284H938.456V105.55C938.456 89.9629 934.574 77.9241 926.811 69.4333C919.109 60.9425 908.526 56.6971 895.062 56.6971C886.086 56.6971 878.08 58.8198 871.045 63.0652C864.07 67.25 858.673 73.2542 854.852 81.0779C851.031 88.8409 849.12 97.6653 849.12 107.551V110.098C849.12 124.836 853.639 136.632 862.675 145.487ZM882.235 83.2612C885.51 79.7436 889.755 77.9848 894.971 77.9848C900.55 77.9848 904.857 79.592 907.889 82.8064C910.921 85.9601 912.498 90.4481 912.62 96.2704V98.3627H876.048C876.958 91.8127 879.02 86.7789 882.235 83.2612Z" fill="#4A92E4"/>
</svg>
