<svg width="939" height="264" viewBox="0 0 939 264" fill="none" xmlns="http://www.w3.org/2000/svg">
<path fill-rule="evenodd" clip-rule="evenodd" d="M125.652 118.947C114.26 113.251 105.879 107.331 100.509 101.187C95.1388 95.044 91.0298 86.6833 88.1821 76.1053C85.2937 65.4052 82.4255 57.8176 79.5777 53.3422C76.6485 48.8262 72.9056 45.429 68.349 43.1506C54.5978 36.2747 44.5487 39.1835 38.2018 51.8769C35.191 57.8982 34.6417 63.6753 36.5538 69.2084C38.4251 74.6195 42.5749 79.0338 49.0029 82.4514L31.3047 117.846C15.8448 109.913 6.1824 98.8261 2.31763 84.5865C-1.50647 70.2656 0.853485 54.5615 9.39748 37.4742C18.0228 20.2242 28.9061 8.93444 42.0472 3.60501C55.107 -1.76511 69.2448 -0.646059 84.4606 6.96217C91.3769 10.4204 97.154 15.2416 101.792 21.4257C106.348 27.5691 110.437 36.3774 114.058 47.8504L118.512 62.4358C121.36 71.5899 126.547 78.608 134.074 83.4902L141.275 87.7012L125.652 118.947ZM161.352 141.222C155.9 138.496 152.34 134.427 150.672 129.016C148.964 123.483 149.554 117.828 152.442 112.051C155.331 106.274 159.481 102.45 164.892 100.578C170.262 98.5847 175.673 98.951 181.125 101.677C186.495 104.362 190.014 108.41 191.682 113.821C193.391 119.151 192.76 124.786 189.79 130.726C186.82 136.666 182.67 140.592 177.341 142.504C172.052 144.334 166.722 143.907 161.352 141.222ZM143.414 144.798C154.806 150.494 163.187 156.413 168.557 162.556C173.928 168.7 178.037 177.06 180.885 187.638C183.774 198.338 186.643 205.925 189.491 210.401C192.42 214.916 196.163 218.314 200.72 220.592C214.471 227.467 224.52 224.558 230.867 211.864C233.877 205.843 234.426 200.066 232.514 194.533C230.642 189.122 226.492 184.707 220.064 181.29L237.761 145.894C253.221 153.827 262.884 164.914 266.749 179.153C270.574 193.474 268.215 209.178 259.671 226.266C251.047 243.516 240.164 254.806 227.023 260.136C213.964 265.507 199.826 264.388 184.61 256.781C177.693 253.323 171.916 248.502 167.278 242.318C162.721 236.175 158.632 227.367 155.011 215.894L150.555 201.309C147.707 192.155 142.52 185.137 134.993 180.255L127.792 176.044L143.414 144.798ZM107.713 122.524C113.165 125.25 116.725 129.319 118.393 134.73C120.102 140.263 119.512 145.918 116.623 151.695C113.735 157.472 109.585 161.297 104.174 163.168C98.804 165.162 93.3929 164.796 87.9412 162.07C82.5708 159.385 79.0515 155.337 77.3833 149.926C75.6744 144.597 76.3049 138.962 79.2747 133.022C82.2445 127.082 86.3942 123.156 91.7238 121.243C97.0127 119.412 102.342 119.839 107.713 122.524ZM324.387 129.929H372.239L381.427 157.221H410.447L360.867 24.7647H335.576L286.269 157.221H315.289L324.387 129.929ZM364.87 107.823H331.756L348.222 58.2427L364.87 107.823ZM469.58 122.47C472.794 124.289 474.401 126.806 474.401 130.02C474.401 133.113 473.097 135.63 470.489 137.571C467.942 139.451 464.152 140.391 459.118 140.391C453.72 140.391 449.414 139.148 446.2 136.661C442.985 134.175 441.257 130.597 441.014 125.927H416.087C416.087 131.87 417.907 137.42 421.546 142.575C425.185 147.669 430.188 151.702 436.556 154.674C442.985 157.585 450.324 159.041 458.572 159.041C470.762 159.041 480.709 156.281 488.411 150.762C496.113 145.183 499.965 137.905 499.965 128.929C499.965 116.374 493.02 107.55 479.132 102.456C474.644 100.818 469.125 99.3625 462.575 98.0889C456.025 96.7546 451.355 95.2081 448.565 93.4493C445.836 91.6298 444.471 89.2645 444.471 86.3534C444.471 83.2603 445.684 80.713 448.11 78.7116C450.536 76.7102 453.963 75.7095 458.39 75.7095C463.545 75.7095 467.336 76.9528 469.762 79.4394C472.187 81.8654 473.4 84.9584 473.4 88.7187H499.692C499.692 79.3181 495.931 71.6764 488.411 65.7935C480.951 59.9106 470.974 56.9691 458.481 56.9691C446.776 56.9691 437.284 59.9106 430.006 65.7935C422.789 71.6157 419.181 78.8936 419.181 87.627C419.181 102.607 430.886 112.554 454.296 117.466C461.331 118.922 466.426 120.59 469.58 122.47ZM543.268 127.2L552.729 117.739L578.019 157.221H608.222L569.559 99.8174L605.129 58.7886H573.562L548.362 88.3548L543.268 94.9048V17.4868H516.977V157.221H543.268V127.2ZM618.047 80.986C614.287 88.6277 612.407 97.3308 612.407 107.095V108.278C612.407 123.925 616.622 136.298 625.052 145.395C633.543 154.492 644.884 159.041 659.076 159.041C673.268 159.041 684.579 154.492 693.009 145.395C701.439 136.237 705.654 124.107 705.654 109.006L705.472 102.274C704.502 88.3244 699.802 77.2864 691.372 69.1595C683.002 61.0326 672.176 56.9691 658.894 56.9691C649.554 56.9691 641.336 59.0615 634.241 63.2462C627.205 67.431 621.808 73.3442 618.047 80.986ZM643.975 130.475C640.457 125.502 638.698 118.346 638.698 109.006C638.698 98.5134 640.457 90.7807 643.975 85.8075C647.492 80.7737 652.466 78.2568 658.894 78.2568C665.384 78.2568 670.418 80.7737 673.996 85.8075C677.574 90.8414 679.363 97.9373 679.363 107.095C679.363 117.83 677.574 125.654 673.996 130.566C670.418 135.418 665.444 137.844 659.076 137.844C652.526 137.844 647.492 135.388 643.975 130.475ZM729.034 78.0748V157.221H755.417V78.0748H774.976V58.7886H755.417V50.8739C755.417 41.5947 760.359 36.9551 770.245 36.9551C773.399 36.9551 776.067 37.228 778.251 37.7738L778.524 17.3959C773.247 16.1829 768.79 15.5764 765.151 15.5764C753.749 15.5764 744.864 18.6392 738.496 24.7647C732.188 30.8295 729.034 39.381 729.034 50.419V58.7886H714.388V78.0748H729.034ZM795.809 78.0748V157.221H822.191V78.0748H841.75V58.7886H822.191V50.8739C822.191 41.5947 827.134 36.9551 837.019 36.9551C840.173 36.9551 842.842 37.228 845.025 37.7738L845.298 17.3959C840.021 16.1829 835.564 15.5764 831.925 15.5764C820.523 15.5764 811.638 18.6392 805.27 24.7647C798.962 30.8295 795.809 39.381 795.809 50.419V58.7886H781.162V78.0748H795.809ZM863.219 145.759C872.317 154.613 884.083 159.041 898.517 159.041C906.705 159.041 914.164 157.494 920.896 154.401C927.628 151.247 932.965 146.881 936.908 141.301L923.989 126.836C918.288 134.175 910.374 137.844 900.245 137.844C893.695 137.844 888.267 135.903 883.961 132.022C879.716 128.14 877.169 122.985 876.32 116.556H939V105.822C939 90.2349 935.118 78.1961 927.355 69.7053C919.653 61.2145 909.07 56.9691 895.606 56.9691C886.63 56.9691 878.624 59.0918 871.589 63.3372C864.614 67.522 859.217 73.5262 855.396 81.3499C851.575 89.1129 849.665 97.9373 849.665 107.823V110.37C849.665 125.108 854.183 136.904 863.219 145.759ZM882.779 83.5332C886.054 80.0156 890.299 78.2568 895.515 78.2568C901.095 78.2568 905.401 79.864 908.433 83.0783C911.465 86.2321 913.042 90.7201 913.164 96.5423V98.6347H876.593C877.502 92.0847 879.564 87.0508 882.779 83.5332Z" fill="url(#paint0_linear)"/>
<defs>
<linearGradient id="paint0_linear" x1="505.652" y1="-42.5791" x2="566.177" y2="245.629" gradientUnits="userSpaceOnUse">
<stop stop-color="#010A1F"/>
<stop offset="1" stop-color="#0075FF"/>
</linearGradient>
</defs>
</svg>
